
  <svg
            version="1.2"
            xmlns="http://www.w3.org/2000/svg"
            viewBox="0 0 512 512"
          >
            <g>
              <path
                fill-rule="evenodd"
                class="s0"
                d="M 511.5 51.5 C 511.5 187.5 511.5 323.5 511.5 459.5 C 507.925 468.238 501.592 474.072 492.5 477 C 334.5 477.667 176.5 477.667 18.5 477 C 9.408 474.072 3.075 468.238 -0.5 459.5 C -0.5 323.5 -0.5 187.5 -0.5 51.5 C 3.075 42.762 9.408 36.928 18.5 34 C 176.5 33.333 334.5 33.333 492.5 34 C 501.592 36.928 507.925 42.762 511.5 51.5 Z M 21.5 51.5 C 177.5 51.333 333.5 51.5 489.5 52 C 490.667 53.167 491.833 54.333 493 55.5 C 493.5 65.161 493.666 74.828 493.5 84.5 C 334.833 84.5 176.167 84.5 17.5 84.5 C 17.334 74.828 17.5 65.161 18 55.5 C 19.376 54.295 20.542 52.962 21.5 51.5 Z M 17.5 102.5 C 176.167 102.5 334.833 102.5 493.5 102.5 C 493.667 220.167 493.5 337.834 493 455.5 C 491.833 456.667 490.667 457.833 489.5 459 C 333.5 459.667 177.5 459.667 21.5 459 C 20.333 457.833 19.167 456.667 18 455.5 C 17.5 337.834 17.333 220.167 17.5 102.5 Z"
              />
            </g>
            <g>
              <path
                fill-rule="evenodd"
                class="s0"
                d="M 46.5,118.5 C 78.8958,118.022 111.229,118.522 143.5,120C 148.423,122.327 151.59,126.16 153,131.5C 153.92,141.242 153.587,150.908 152,160.5C 149.894,165.147 146.394,168.314 141.5,170C 108.439,170.979 75.4393,170.645 42.5,169C 38.1832,166.685 35.3498,163.185 34,158.5C 33.3333,149.167 33.3333,139.833 34,130.5C 36.0855,124.246 40.2522,120.246 46.5,118.5 Z M 51.5,136.5 C 51.5,141.833 51.5,147.167 51.5,152.5C 79.5,152.5 107.5,152.5 135.5,152.5C 135.5,147.167 135.5,141.833 135.5,136.5C 107.5,136.5 79.5,136.5 51.5,136.5 Z"
              />
            </g>
            <g>
              <path
                fill-rule="evenodd"
                class="s2"
                d="M 124.5,186.5 C 156.229,186.022 187.896,186.522 219.5,188C 225.164,190.332 228.664,194.499 230,200.5C 230.917,209.909 230.584,219.242 229,228.5C 227.073,233.428 223.573,236.594 218.5,238C 186.167,238.667 153.833,238.667 121.5,238C 116.667,235.833 113.167,232.333 111,227.5C 109.503,219.221 109.169,210.888 110,202.5C 111.227,193.778 116.06,188.444 124.5,186.5 Z M 127.5,204.5 C 127.5,209.833 127.5,215.167 127.5,220.5C 155.833,220.5 184.167,220.5 212.5,220.5C 212.5,215.167 212.5,209.833 212.5,204.5C 184.167,204.5 155.833,204.5 127.5,204.5 Z"
              />
            </g>
            <g>
              <path
                fill-rule="evenodd"
                class="s0"
                d="M 87.5,255.5 C 111.502,255.333 135.502,255.5 159.5,256C 164.757,258.256 168.257,262.09 170,267.5C 170.667,276.5 170.667,285.5 170,294.5C 167.648,301.517 162.815,305.684 155.5,307C 133.833,307.667 112.167,307.667 90.5,307C 82.3333,305.5 77.5,300.667 76,292.5C 75.3333,284.833 75.3333,277.167 76,269.5C 77.2679,262.583 81.1012,257.917 87.5,255.5 Z M 93.5,273.5 C 93.5,278.833 93.5,284.167 93.5,289.5C 113.167,289.5 132.833,289.5 152.5,289.5C 152.5,284.167 152.5,278.833 152.5,273.5C 132.833,273.5 113.167,273.5 93.5,273.5 Z"
              />
            </g>
            <g>
              <path
                fill-rule="evenodd"
                class="s0"
                d="M 198.5,255.5 C 236.501,255.333 274.501,255.5 312.5,256C 317.573,257.406 321.073,260.572 323,265.5C 325,275.833 325,286.167 323,296.5C 320.549,302.616 316.049,306.116 309.5,307C 272.12,307.975 234.787,307.642 197.5,306C 193,304.167 189.833,301 188,296.5C 186,286.167 186,275.833 188,265.5C 190.106,260.557 193.606,257.224 198.5,255.5 Z M 204.5,273.5 C 204.5,278.833 204.5,284.167 204.5,289.5C 238.5,289.5 272.5,289.5 306.5,289.5C 306.5,284.167 306.5,278.833 306.5,273.5C 272.5,273.5 238.5,273.5 204.5,273.5 Z"
              />
            </g>
            <g>
              <path
                fill-rule="evenodd"
                class="s0"
                d="M 275.5,323.5 C 308.562,323.021 341.562,323.521 374.5,325C 378.388,327.222 381.221,330.388 383,334.5C 383.667,344.5 383.667,354.5 383,364.5C 380.668,370.164 376.501,373.664 370.5,375C 338.106,375.978 305.773,375.645 273.5,374C 268.856,371.359 265.689,367.525 264,362.5C 263.333,353.833 263.333,345.167 264,336.5C 264.806,333.554 266.139,330.888 268,328.5C 270.479,326.686 272.979,325.019 275.5,323.5 Z M 281.5,341.5 C 281.5,346.833 281.5,352.167 281.5,357.5C 309.5,357.5 337.5,357.5 365.5,357.5C 365.5,352.167 365.5,346.833 365.5,341.5C 337.5,341.5 309.5,341.5 281.5,341.5 Z"
              />
            </g>
            <g>
              <path
                fill-rule="evenodd"
                class="s0"
                d="M 336.5,391.5 C 379.168,391.333 421.835,391.5 464.5,392C 470.925,393.427 475.092,397.26 477,403.5C 477.667,412.833 477.667,422.167 477,431.5C 475.167,437.333 471.333,441.167 465.5,443C 422.167,443.667 378.833,443.667 335.5,443C 330.815,441.65 327.315,438.817 325,434.5C 323.408,424.241 323.074,413.907 324,403.5C 326.208,397.337 330.375,393.337 336.5,391.5 Z M 341.5,409.5 C 341.5,414.833 341.5,420.167 341.5,425.5C 380.833,425.5 420.167,425.5 459.5,425.5C 459.5,420.167 459.5,414.833 459.5,409.5C 420.167,409.5 380.833,409.5 341.5,409.5 Z"
              />
            </g>
          </svg>