<?xml version="1.0" encoding="utf-8"?>
<svg viewBox="69.546 80.82 234.4536 172.906" xmlns="http://www.w3.org/2000/svg">
  <circle cx="175.598" cy="166.21" r="81.7683" fill="#F0F0F0"/>
  <path d="M188.307 146.918L265.002 168.562L257.003 253.726L165.252 230.67L188.307 146.918Z" fill="#D2D2D2"/>
  <path d="M264.529 168.093L184.07 147.391C180.149 153.037 170.049 167.623 161.015 180.797C151.981 193.972 136.234 210.126 129.49 216.557L223.594 244.317C225.319 243.376 232.628 236.507 248.061 216.557C263.494 196.607 265.47 175.935 264.529 168.093Z" fill="#F3F3F3" stroke="#CCCCCC" stroke-width="0.818293"/>
  <circle cx="191.127" cy="169.506" r="3.76414" fill="#C4C4C4"/>
  <circle cx="179.838" cy="189.268" r="3.76414" fill="#C4C4C4"/>
  <circle cx="168.543" cy="207.147" r="3.76414" fill="#C4C4C4"/>
  <circle cx="115.497" cy="126.771" r="34.3988" transform="matrix(0.9000550204298272, 0.4357762731024526, -0.4357762731024526, 0.9000550204298272, 66.78714101004954, -37.66072755545116)" fill="#F0F0F0" stroke="#D2D2D2" stroke-width="0.818293"/>
  <rect width="18.8207" height="2.82311" transform="matrix(1, 0, 0, -1, 104.6780014038086, 136.65199279785156)" fill="#C4C4C4"/>
  <circle cx="95.7343" cy="121.125" r="5.1757" fill="#C4C4C4"/>
  <circle cx="132.435" cy="121.125" r="5.1757" fill="#C4C4C4"/>
  <rect x="189.453" y="192.516" width="45.1697" height="1.88207" rx="0.941036" transform="matrix(0.9636304532086231, 0.26723837607825685, -0.26723837607825685, 0.9636304532086231, 58.337984792859054, -43.62739294068917)" fill="#C4C4C4"/>
  <rect x="179.602" y="211.586" width="40.885" height="1.88207" rx="0.941036" transform="matrix(0.9636304532086231, 0.26723837607825685, -0.26723837607825685, 0.9636304532086231, 63.0759421742818, -40.30126128377925)" fill="#C4C4C4"/>
  <rect x="201.855" y="172.371" width="45.1697" height="1.88207" rx="0.941036" transform="matrix(0.9681476403781077, 0.25038000405444144, -0.25038000405444144, 0.9681476403781077, 49.587810144408586, -45.050031498297194)" fill="#C4C4C4"/>
  <circle cx="255.733" cy="204.472" r="22.956" fill="#F1F1F1" stroke="#C4C4C4" stroke-width="2"/>
  <circle cx="255.733" cy="204.471" r="16.1114" fill="#FFFEFF" stroke="#C4C4C4" stroke-width="2"/>
  <path d="M255.73 191.892C255.73 191.641 255.527 191.437 255.275 191.445C252.132 191.555 249.127 192.799 246.823 194.956C244.519 197.112 243.079 200.028 242.762 203.158C242.736 203.408 242.927 203.625 243.178 203.641V203.641C243.429 203.658 243.644 203.468 243.67 203.218C243.972 200.318 245.309 197.619 247.445 195.62C249.58 193.621 252.363 192.465 255.275 192.356C255.527 192.347 255.73 192.144 255.73 191.892V191.892Z" fill="#C4C4C4"/>
  <rect x="273.348" y="229.875" width="8.69793" height="24.3264" rx="4.34896" transform="matrix(0.7071067811865476, -0.7071067811865476, 0.7071067811865476, 0.7071067811865476, -82.48439810877346, 260.6150474016175)" fill="#F1F1F1" stroke="#C4C4C4" stroke-width="2"/>
  <rect x="282.221" y="231.758" width="1.0875" height="9.11836" rx="0.543749" transform="matrix(0.7071067811865476, -0.7071067811865476, 0.7071067811865476, 0.7071067811865476, -81.2170307488351, 267.4407340814271)" fill="white"/>
  <rect x="273.178" y="224.348" width="1.11632" height="4.46529" transform="matrix(0.7071067811865476, -0.7071067811865476, 0.7071067811865476, 0.7071067811865476, -78.62601086354232, 258.87603262223877)" fill="#C4C4C4"/>
  <rect x="285.023" y="201.66" width="11.1632" height="1.11632" rx="0.558161" fill="#C4C4C4"/>
  <rect x="215.998" y="210.895" width="11.1632" height="1.11632" rx="0.558161" fill="#C4C4C4"/>
  <rect x="298.418" y="201.66" width="5.58161" height="1.11632" rx="0.558161" fill="#C4C4C4"/>
  <rect x="287.812" y="205.758" width="5.58161" height="1.11632" rx="0.558161" fill="#C4C4C4"/>
  <rect x="218.789" y="214.992" width="5.58161" height="1.11632" rx="0.558161" fill="#C4C4C4"/>
</svg>